<svg width="41" height="48" xmlns="http://www.w3.org/2000/svg" fill="none">
 <g>
  <path fill-rule="evenodd" clip-rule="evenodd" d="m38.19696,7.68726l-1.28601,-0.30265l-2.93799,-6.9609l-1.653,-0.42371l0.85699,6.47667l-4.22501,-1.029l-0.918,-2.30013l-1.46899,-0.36318l0.36701,2.54225c-11.755,-2.78437 -23.57201,4.41866 -26.327,16.04039c-2.816,11.6216 4.47,23.3039 16.225,26.0277c1.653,0.3632 3.367,0.6053 5.02,0.6053c0.91898,0 1.776,-0.0605 2.694,-0.1816c-0.367,0 -0.673,0 -0.979,0c-11.817,0.7264 -21.98,-8.1715 -22.715,-19.8537c-0.73399,-11.6822 8.26601,-21.73015 20.08201,-22.4565c0.85699,-0.06053 1.71399,-0.06053 2.633,0c1.03999,0 2.142,0.06053 3.183,0.24212l0.123,0.06052l-1.653,2.05801l1.469,0.36318l1.959,-1.51324l4.10202,1.21059l-2.388,3.14752c-8.50999,-4.11599 -18.857,-0.6053 -23.02,7.8083c-4.163,8.4137 -0.612,18.6432 7.898,22.7592c8.50998,4.116 18.79599,0.7263 22.959,-7.7478c3.79599,-7.6873 1.22499,-16.9483 -6,-21.6696l4.16299,-3.14756l1.286,0.36318c1.28601,0.30265 3.18401,0.72638 3.36801,0c0.306,-0.84741 -1.59201,-1.39218 -2.817,-1.75536zm-19.714,3.75284c-1.286,1.6343 -2.327,3.4502 -3.18401,5.3266c-1.10199,-0.5448 -2.14299,-1.1501 -3.12199,-1.8764c1.83701,-1.6343 3.979,-2.7844 6.30601,-3.4502zm-7.286,4.4792c1.10201,0.8474 2.327,1.5738 3.61201,2.1791c-0.85701,2.4211 -1.347,5.0239 -1.46901,7.6267l-6.245,0c0.184,-3.6923 1.592,-7.1425 4.102,-9.8058zm-4.102,11.198l6.245,0c0.061,2.6027 0.55101,5.2055 1.46901,7.6872c-1.224,0.6659 -2.387,1.4528 -3.428,2.3607c-2.57201,-2.7844 -4.10201,-6.3556 -4.286,-10.0479l-0.00001,0zm5.388,10.9558c0.918,-0.7868 1.89799,-1.4527 2.939,-1.9974c0.79601,1.8764 1.89801,3.6317 3.12201,5.266c-2.265,-0.6053 -4.347,-1.7553 -6.061,-3.2686l-0.00001,0zm9.612,3.8739c-0.49001,0 -0.91801,-0.0605 -1.408,-0.121c-1.71399,-1.8764 -3.06099,-3.995 -4.10199,-6.3556c1.71399,-0.7264 3.612,-1.1501 5.44899,-1.2106l0,7.6872l0.061,0zm0,-9.0794c-2.08099,0.0605 -4.10201,0.5448 -6,1.3316c-0.79601,-2.3001 -1.286,-4.6607 -1.347,-7.0819l7.347,0l0,5.7503zm0,-7.203l-7.347,0c0.061,-2.4212 0.55099,-4.7819 1.347,-7.082c1.89799,0.7264 3.91901,1.1501 6,1.2106l0,5.8714zm0,-7.2636c-1.89799,-0.0605 -3.735,-0.4237 -5.44901,-1.0895c0.98001,-2.3002 2.388,-4.4187 4.041,-6.2951c0.49,-0.0605 0.918,-0.1211 1.408,-0.1211l0,7.5057l0.00002,0zm1.47,-7.5662c0.489,0 0.918,0.0605 1.408,0.1211c1.71399,1.8764 3.06099,3.9949 4.041,6.3556c-1.776,0.6658 -3.61301,1.029 -5.44901,1.0895l0,-7.5662l0.00001,0zm0,9.0189c2.08099,-0.0605 4.10201,-0.4842 6,-1.2106c0.795,2.3002 1.224,4.6608 1.285,7.082l-7.347,0l0.062,-5.8714zm0,7.2636l7.34599,0c-0.06099,2.4212 -0.489,4.7818 -1.34599,7.0819c-1.89799,-0.7868 -3.91901,-1.2106 -6,-1.3316l0,-5.7503zm0,14.8297l0,-7.6872c1.897,0.0605 3.73399,0.4842 5.44901,1.2106c-0.98001,2.3001 -2.388,4.4792 -4.10301,6.3556c-0.489,0.0605 -0.918,0.0605 -1.34599,0.121l-0.00001,0zm3.55099,-0.6053c1.285,-1.6343 2.326,-3.3896 3.12201,-5.266c1.041,0.5447 2.01999,1.2106 2.939,1.9974c-1.715,1.5133 -3.79601,2.6633 -6.061,3.2686l-0.00001,0zm7.10201,-4.237c-1.041,-0.908 -2.205,-1.6949 -3.429,-2.3607c0.918,-2.4817 1.408,-5.024 1.46899,-7.6873l6.24501,0c-0.12201,3.7529 -1.653,7.3241 -4.285,10.048zm4.347,-11.4401l-6.30701,0c-0.06099,-2.6028 -0.55099,-5.1451 -1.40799,-7.5662c1.28601,-0.6053 2.50999,-1.3317 3.612,-2.1791c2.44899,2.6633 3.91899,6.1135 4.103,9.7453zm-5.14301,-10.7743c-0.98,0.7263 -2.02101,1.3316 -3.123,1.8764c-0.79599,-1.8764 -1.89799,-3.6923 -3.183,-5.3266c0.795,0.2421 1.53,0.4842 2.326,0.8474l-0.673,0.908l1.653,0.4237l0.673,-0.4843c0.79601,0.5448 1.59201,1.0896 2.32701,1.7554z" fill="white" id="svg_5" stroke-width="2"/>
 </g>

</svg>